<?xml version="1.0" standalone="no"?>
<!DOCTYPE svg PUBLIC "-//W3C//DTD SVG 20010904//EN"
 "http://www.w3.org/TR/2001/REC-SVG-20010904/DTD/svg10.dtd">
<svg version="1.0" xmlns="http://www.w3.org/2000/svg"
 width="1024.000000pt" height="1024.000000pt" viewBox="0 0 1024.000000 1024.000000"
 preserveAspectRatio="xMidYMid meet">
<metadata>
Created by potrace 1.16, written by Peter Selinger 2001-2019
</metadata>
<g transform="translate(0.000000,1024.000000) scale(0.100000,-0.100000)"
fill="#000000" stroke="none">
<path d="M5010 8160 c-218 -34 -386 -194 -434 -412 l-6 -28 -218 0 c-266 0
-299 -7 -378 -82 -96 -91 -99 -105 -99 -493 0 -397 14 -446 149 -518 l41 -22
1014 -3 c1154 -3 1087 -7 1170 76 80 80 84 102 89 432 7 547 -42 610 -474 610
l-222 0 -21 68 c-77 252 -344 414 -611 372z m218 -299 c271 -139 176 -536
-128 -536 -301 1 -394 400 -126 536 75 38 180 38 254 0z"/>
<path d="M3512 7386 c-185 -45 -348 -193 -414 -376 l-23 -65 0 -2110 0 -2110
22 -70 c66 -209 264 -384 485 -429 98 -20 2399 -24 2363 -4 -127 70 -258 237
-306 388 l-17 55 -948 5 -949 5 -41 22 c-45 24 -103 84 -131 135 -30 55 -33
3911 -3 3990 21 56 74 119 121 144 l28 14 3 210 3 210 -70 -1 c-38 0 -94 -6
-123 -13z"/>
<path d="M6500 7192 l0 -210 44 -26 c52 -31 92 -76 118 -133 18 -40 18 -100
18 -1515 l0 -1474 67 -22 c110 -35 218 -105 316 -203 l87 -88 0 1677 c0 1858
3 1750 -67 1885 -96 186 -278 303 -490 315 l-93 5 0 -211z"/>
<path d="M4988 6310 c-339 -62 -562 -327 -576 -682 l-4 -128 146 0 146 0 -6
43 c-54 399 422 642 704 360 82 -82 106 -143 110 -285 l4 -118 144 0 144 0 0
95 c0 449 -391 793 -812 715z"/>
<path d="M4116 4883 c6 -547 16 -616 118 -817 148 -289 362 -472 680 -582 59
-20 126 -49 149 -65 41 -27 42 -27 62 -10 29 27 53 38 182 82 385 133 644 410
756 807 20 73 22 105 27 555 l5 477 -992 0 -992 0 5 -447z m1062 117 l122 0 0
-165 0 -165 158 -2 c86 0 172 -1 190 -1 l32 0 0 -193 0 -193 -52 -6 c-29 -4
-115 -5 -191 -3 l-137 3 0 -192 0 -193 -195 0 -195 0 0 194 0 194 -184 -5
c-103 -4 -185 -2 -188 3 -2 5 -2 96 0 203 l4 194 184 -5 184 -5 0 167 c0 193
-4 184 80 176 36 -3 120 -6 188 -6z"/>
<path d="M6272 3670 c-446 -120 -678 -622 -476 -1025 361 -717 1405 -449 1372
352 -20 464 -456 792 -896 673z m294 -195 c57 -37 59 -50 62 -425 3 -377 3
-386 -33 -402 -63 -28 -65 -15 -65 377 0 371 -2 388 -45 371 -13 -5 -15 -66
-15 -485 0 -511 0 -511 -47 -511 -49 0 -53 18 -53 267 l0 233 -207 0 c-224 0
-243 4 -243 56 0 51 32 58 250 51 l199 -6 3 213 c3 197 5 216 23 236 44 50
117 60 171 25z m402 -481 c26 -18 28 -50 5 -76 -14 -16 -33 -18 -150 -18
l-133 0 0 50 0 49 88 4 c48 1 105 4 127 5 24 1 50 -5 63 -14z"/>
<path d="M3802 3464 c-30 -21 -30 -76 0 -104 22 -20 31 -21 326 -18 l304 3 19
24 c25 31 24 63 -4 89 -31 29 -604 35 -645 6z"/>
<path d="M3802 3124 c-32 -22 -30 -76 4 -103 27 -21 32 -21 840 -21 l813 0 27
23 c34 29 36 73 4 99 -32 26 -1651 28 -1688 2z"/>
</g>
</svg>